<svg xmlns="http://www.w3.org/2000/svg" width="422" height="131" viewBox="0 0 422 131">
  <g id="Group_40" data-name="Group 40" transform="translate(-742 -179)">
    <rect id="Rectangle_368" data-name="Rectangle 368" width="348" height="89" rx="39" transform="translate(742 200)" fill="#fff"/>
    <g id="Group_35" data-name="Group 35" transform="translate(-75 -432)">
      <g id="Group_12" data-name="Group 12" transform="translate(1003.534 638)">
        <path id="Path_27" data-name="Path 27" d="M38.263,0A38.263,38.263,0,1,1,0,38.263,38.263,38.263,0,0,1,38.263,0Z" transform="translate(0 0.003)" fill="#fff"/>
        <g id="Group_10" data-name="Group 10" transform="translate(12.712 28.039)">
          <path id="Path_20" data-name="Path 20" d="M175.47,192.66l2.929-17.29h4.739l-2.927,17.29Z" transform="translate(-159.85 -175.092)" fill="#293688"/>
          <path id="Path_21" data-name="Path 21" d="M235.449,174.375a12.314,12.314,0,0,0-4.25-.725c-4.684,0-7.985,2.346-8.014,5.706-.026,2.483,2.356,3.869,4.155,4.7,1.846.846,2.466,1.389,2.456,2.144-.011,1.159-1.474,1.689-2.837,1.689a9.991,9.991,0,0,1-4.463-.907l-.61-.276-.665,3.87a15.074,15.074,0,0,0,5.282.922c4.983,0,8.219-2.317,8.254-5.907.018-1.967-1.245-3.464-3.98-4.7-1.657-.8-2.672-1.332-2.661-2.143,0-.719.859-1.487,2.716-1.487a8.791,8.791,0,0,1,3.549.662l.425.2.644-3.749Z" transform="translate(-198.212 -173.65)" fill="#293688"/>
          <path id="Path_22" data-name="Path 22" d="M310.161,175.37a2.357,2.357,0,0,0-2.456,1.473L300.68,192.66H305.7l.975-2.65h6l.557,2.65h4.461l-3.9-17.288-3.623,0Zm-2.156,11.182c.391-1,1.888-4.833,1.888-4.833-.027.045.389-1,.63-1.649l.321,1.49s.907,4.127,1.1,4.993l-3.935,0Z" transform="translate(-264.842 -175.092)" fill="#293688"/>
          <path id="Path_23" data-name="Path 23" d="M85.707,187.23l-.418-2.37a13.506,13.506,0,0,0-6.559-7.25l4.189,15.059h5.02l7.529-17.288h-5.02Z" transform="translate(-78.73 -175.101)" fill="#293688"/>
        </g>
        <g id="Group_11" data-name="Group 11" transform="translate(4.31 28.317)">
          <path id="Path_24" data-name="Path 24" d="M46.81,175.37v.279c5.949,1.431,10.077,5.047,11.713,9.2l-1.72-8.006a2.038,2.038,0,0,0-2.185-1.476Z" transform="translate(-43.561 -175.37)" fill="#f7981d"/>
          <path id="Path_25" data-name="Path 25" d="M60.64,366.854A38.25,38.25,0,0,0,94.592,346.23H26.69A38.248,38.248,0,0,0,60.64,366.854Z" transform="translate(-26.69 -318.641)" fill="#f7981d"/>
        </g>
        <path id="Path_26" data-name="Path 26" d="M62.192,0A38.252,38.252,0,0,0,28.54,20.038H95.847A38.26,38.26,0,0,0,62.192,0Z" transform="translate(-23.932 0)" fill="#293688"/>
      </g>
      <g id="Group_15" data-name="Group 15" transform="translate(851 642.774)">
        <path id="Path_28" data-name="Path 28" d="M268.228,33.314a33.314,33.314,0,1,1-66.628,0h0a33.314,33.314,0,1,1,66.628,0Z" transform="translate(-157.181)" fill="#ffb600"/>
        <path id="Path_29" data-name="Path 29" d="M234.914,0a33.4,33.4,0,0,1,33.314,33.314h0a33.314,33.314,0,1,1-66.628,0" transform="translate(-157.181)" fill="#f7981d"/>
        <path id="Path_30" data-name="Path 30" d="M352.8,0a33.4,33.4,0,0,1,33.314,33.314h0A33.287,33.287,0,0,1,352.8,66.628" transform="translate(-275.067)" fill="#ff8500"/>
        <path id="Path_31" data-name="Path 31" d="M32.961,0a33.315,33.315,0,0,0,.353,66.628A33.7,33.7,0,0,0,55.7,57.991h0a31.674,31.674,0,0,0,3.349-3.525H52.174a40.661,40.661,0,0,1-2.468-3.349h11.81a22.579,22.579,0,0,0,1.939-3.525H47.768a21.008,21.008,0,0,1-1.41-3.525H64.689A35,35,0,0,0,66.452,33.49a45.5,45.5,0,0,0-.705-7.051H45.3a25.77,25.77,0,0,1,.881-3.525H64.513a21.008,21.008,0,0,0-1.41-3.525H47.591a34.955,34.955,0,0,1,1.939-3.525H61.34A16.762,16.762,0,0,0,58.7,12.339H52.174a30.043,30.043,0,0,1,3.349-3.349A32.526,32.526,0,0,0,33.138.353C33.138,0,33.138,0,32.961,0Z" fill="#ff5050"/>
        <path id="Path_32" data-name="Path 32" d="M0,34.561A33.287,33.287,0,0,0,33.314,67.875,33.7,33.7,0,0,0,55.7,59.238h0a31.674,31.674,0,0,0,3.349-3.525H52.174a40.662,40.662,0,0,1-2.468-3.349h11.81a22.579,22.579,0,0,0,1.939-3.525H47.768a21.009,21.009,0,0,1-1.41-3.525H64.689a35,35,0,0,0,1.763-10.576,45.5,45.5,0,0,0-.705-7.051H45.3a25.77,25.77,0,0,1,.881-3.525H64.513a21.008,21.008,0,0,0-1.41-3.525H47.591a34.956,34.956,0,0,1,1.939-3.525H61.34A16.762,16.762,0,0,0,58.7,13.586H52.174a30.043,30.043,0,0,1,3.349-3.349A32.526,32.526,0,0,0,33.138,1.6h-.176" transform="translate(0 -1.247)" fill="#e52836"/>
        <path id="Path_33" data-name="Path 33" d="M149.953,67.875a33.7,33.7,0,0,0,22.386-8.637h0a31.67,31.67,0,0,0,3.349-3.525h-6.874a40.652,40.652,0,0,1-2.468-3.349h11.81a22.58,22.58,0,0,0,1.939-3.525H164.406A21.011,21.011,0,0,1,163,45.314h18.331a35,35,0,0,0,1.763-10.576,45.5,45.5,0,0,0-.705-7.051H161.938a25.773,25.773,0,0,1,.881-3.525h18.331a21.008,21.008,0,0,0-1.41-3.525H164.23a34.952,34.952,0,0,1,1.939-3.525h11.81a16.763,16.763,0,0,0-2.644-3.525h-6.522a30.042,30.042,0,0,1,3.349-3.349A32.526,32.526,0,0,0,149.776,1.6H149.6" transform="translate(-116.639 -1.247)" fill="#cb2026"/>
        <g id="Group_13" data-name="Group 13" transform="translate(3.173 24.677)">
          <path id="Path_34" data-name="Path 34" d="M186.712,134.711l.529-3a7.633,7.633,0,0,1-.881.176c-1.234,0-1.41-.705-1.234-1.058l1.058-6.169h1.939l.529-3.349h-1.763l.353-2.115h-3.525s-2.115,11.633-2.115,13.044a2.646,2.646,0,0,0,2.82,3A5.411,5.411,0,0,0,186.712,134.711Z" transform="translate(-144.761 -117.614)" fill="#fff"/>
          <path id="Path_35" data-name="Path 35" d="M210.4,135.853c0,4.935,3.349,6.169,6.169,6.169a9.152,9.152,0,0,0,3.7-.529l.705-3.349a10.567,10.567,0,0,1-3.7.881c-3.878,0-3.173-2.82-3.173-2.82h7.227a22.854,22.854,0,0,0,.529-3.173c0-2.291-1.234-5.112-5.112-5.112C213.044,127.569,210.4,131.446,210.4,135.853Zm6.169-5.112c1.939,0,1.586,2.291,1.586,2.468h-3.878C214.278,133.033,214.63,130.741,216.569,130.741Z" transform="translate(-167.215 -124.396)" fill="#fff"/>
          <path id="Path_36" data-name="Path 36" d="M305.695,129.1l.705-3.878a8.662,8.662,0,0,1-3,.881c-2.468,0-3.525-1.939-3.525-4.054,0-4.23,2.115-6.522,4.583-6.522a5.887,5.887,0,0,1,3.173,1.058l.529-3.7a12.393,12.393,0,0,0-4.054-.881c-4.054,0-8.108,3.525-8.108,10.223,0,4.407,2.115,7.4,6.346,7.4A15.82,15.82,0,0,0,305.695,129.1Z" transform="translate(-233.955 -112)" fill="#fff"/>
          <path id="Path_37" data-name="Path 37" d="M93.1,126.4a12.484,12.484,0,0,0-4.23.705l-.529,3a10.419,10.419,0,0,1,3.878-.705c1.234,0,2.291.176,2.291,1.234,0,.705-.176.881-.176.881H92.746c-3,0-6.346,1.234-6.346,5.288,0,3.173,2.115,3.878,3.349,3.878a5.3,5.3,0,0,0,3.7-1.586l-.176,1.41h3.173l1.41-9.695C97.857,126.576,94.332,126.4,93.1,126.4Zm.705,7.932c0,.529-.353,3.349-2.468,3.349a1.376,1.376,0,0,1-1.41-1.41c0-.881.529-2.115,3.173-2.115A2.779,2.779,0,0,0,93.8,134.332Z" transform="translate(-70.536 -123.227)" fill="#fff"/>
          <path id="Path_38" data-name="Path 38" d="M139.254,140.054c.881,0,5.288.176,5.288-4.583,0-4.407-4.23-3.525-4.23-5.288,0-.881.705-1.234,1.939-1.234.529,0,2.468.176,2.468.176l.529-3.173a13.39,13.39,0,0,0-3.349-.353c-2.644,0-5.288,1.058-5.288,4.583,0,4.054,4.407,3.7,4.407,5.288,0,1.058-1.234,1.234-2.115,1.234a11.527,11.527,0,0,1-3.173-.529l-.529,3.173C135.376,139.7,136.258,140.054,139.254,140.054Z" transform="translate(-108.584 -122.603)" fill="#fff"/>
          <path id="Path_39" data-name="Path 39" d="M437.247,113.6l-.705,4.759a4.888,4.888,0,0,0-3.349-1.763c-3.173,0-5.993,3.878-5.993,8.461,0,2.82,1.41,5.817,4.407,5.817a4.705,4.705,0,0,0,3.349-1.41l-.176,1.234H438.3l2.644-16.921Zm-1.586,9.342c0,1.939-.881,4.407-2.82,4.407-1.234,0-1.939-1.058-1.939-2.82,0-2.82,1.234-4.583,2.82-4.583C434.956,119.946,435.661,120.827,435.661,122.942Z" transform="translate(-336.248 -113.247)" fill="#fff"/>
          <path id="Path_40" data-name="Path 40" d="M17.749,130.521l2.115-12.691.353,12.691h2.468l4.583-12.691-1.939,12.691h3.7L31.85,113.6H26.033L22.508,124l-.176-10.4H17.22L14.4,130.521Z" transform="translate(-14.4 -113.247)" fill="#fff"/>
          <path id="Path_41" data-name="Path 41" d="M263.878,141.749c1.058-5.817,1.234-10.576,3.7-9.695A13.835,13.835,0,0,1,268.813,128h-.705c-1.586,0-2.82,2.115-2.82,2.115l.352-1.939h-3.349L260,141.925h3.878Z" transform="translate(-205.887 -124.475)" fill="#fff"/>
          <path id="Path_42" data-name="Path 42" d="M353.1,126.4a12.484,12.484,0,0,0-4.23.705l-.529,3a10.419,10.419,0,0,1,3.878-.705c1.234,0,2.291.176,2.291,1.234,0,.705-.176.881-.176.881h-1.586c-3,0-6.346,1.234-6.346,5.288,0,3.173,2.115,3.878,3.349,3.878a5.3,5.3,0,0,0,3.7-1.586l-.176,1.41h3.173l1.41-9.695C358.033,126.576,354.332,126.4,353.1,126.4Zm.881,7.932c0,.529-.353,3.349-2.468,3.349a1.376,1.376,0,0,1-1.41-1.41c0-.881.529-2.115,3.173-2.115C353.8,134.332,353.8,134.332,353.979,134.332Z" transform="translate(-273.25 -123.227)" fill="#fff"/>
          <path id="Path_43" data-name="Path 43" d="M398.278,141.749c1.057-5.817,1.234-10.576,3.7-9.695A13.835,13.835,0,0,1,403.213,128h-.705c-1.586,0-2.82,2.115-2.82,2.115l.352-1.939h-3.349L394.4,141.925h3.878Z" transform="translate(-310.674 -124.475)" fill="#fff"/>
        </g>
        <g id="Group_14" data-name="Group 14" transform="translate(3.173 24.677)">
          <path id="Path_44" data-name="Path 44" d="M180,132.244a2.646,2.646,0,0,0,2.82,3,6.709,6.709,0,0,0,2.644-.529l.529-3a7.636,7.636,0,0,1-.881.176c-1.234,0-1.41-.705-1.234-1.058l1.058-6.169h1.939l.529-3.349H185.64l.353-2.115" transform="translate(-143.513 -117.614)" fill="#dce5e5"/>
          <path id="Path_45" data-name="Path 45" d="M218.4,135.853c0,4.935,1.586,6.169,4.407,6.169a9.152,9.152,0,0,0,3.7-.529l.705-3.349a10.567,10.567,0,0,1-3.7.881c-3.878,0-3.173-2.82-3.173-2.82h7.227a22.851,22.851,0,0,0,.529-3.173c0-2.291-1.234-5.112-5.112-5.112C219.281,127.569,218.4,131.446,218.4,135.853Zm4.407-5.112c1.939,0,2.291,2.291,2.291,2.468h-4.583C220.515,133.033,220.868,130.741,222.807,130.741Z" transform="translate(-173.453 -124.396)" fill="#dce5e5"/>
          <path id="Path_46" data-name="Path 46" d="M311.932,129.1l.705-3.878a8.662,8.662,0,0,1-3,.881c-2.468,0-3.525-1.939-3.525-4.054,0-4.23,2.115-6.522,4.583-6.522a5.886,5.886,0,0,1,3.173,1.058l.529-3.7a12.393,12.393,0,0,0-4.054-.881c-4.054,0-6.346,3.525-6.346,10.223,0,4.407.353,7.4,4.583,7.4A15.82,15.82,0,0,0,311.932,129.1Z" transform="translate(-240.192 -112)" fill="#dce5e5"/>
          <path id="Path_47" data-name="Path 47" d="M88.339,131.525a10.419,10.419,0,0,1,3.878-.705c1.234,0,2.291.176,2.291,1.234,0,.705-.176.881-.176.881H92.746c-3,0-6.346,1.234-6.346,5.288,0,3.173,2.115,3.878,3.349,3.878a5.3,5.3,0,0,0,3.7-1.586l-.176,1.41h3.173l1.41-9.695c0-4.054-3.525-4.23-4.935-4.23m2.644,7.579c0,.529-2.115,3.349-4.23,3.349a1.376,1.376,0,0,1-1.41-1.41c0-.881.529-2.115,3.173-2.115A14.4,14.4,0,0,0,95.566,135.579Z" transform="translate(-70.536 -124.475)" fill="#dce5e5"/>
          <path id="Path_48" data-name="Path 48" d="M136,139.7a14.918,14.918,0,0,0,4.054.353c.881,0,5.288.176,5.288-4.583,0-4.407-4.23-3.525-4.23-5.288,0-.881.705-1.234,1.939-1.234.529,0,2.468.176,2.468.176l.529-3.173a13.389,13.389,0,0,0-3.349-.353c-2.644,0-3.525,1.058-3.525,4.583,0,4.054,2.644,3.7,2.644,5.288,0,1.058-1.234,1.234-2.115,1.234" transform="translate(-109.208 -122.604)" fill="#dce5e5"/>
          <path id="Path_49" data-name="Path 49" d="M442.734,118.983a4.887,4.887,0,0,0-3.349-1.763c-3.173,0-4.23,3.878-4.23,8.461,0,2.82-.352,5.817,2.644,5.817a4.706,4.706,0,0,0,3.349-1.41l-.176,1.234H444.5l2.644-16.921m-4.583,9.166c0,1.939-1.586,4.407-3.525,4.407-1.234,0-1.939-1.058-1.939-2.82,0-2.82,1.234-4.583,2.82-4.583A2.693,2.693,0,0,1,442.558,123.566Z" transform="translate(-342.44 -113.871)" fill="#dce5e5"/>
          <path id="Path_50" data-name="Path 50" d="M17.749,130.521l2.115-12.691.353,12.691h2.468l4.583-12.691-1.939,12.691h3.7L31.85,113.6H27.444L22.508,124l-.176-10.4H20.393L14.4,130.521Z" transform="translate(-14.4 -113.247)" fill="#dce5e5"/>
          <path id="Path_51" data-name="Path 51" d="M260.8,141.749h3.7c1.057-5.817,1.234-10.576,3.7-9.695A13.833,13.833,0,0,1,269.437,128h-.705c-1.586,0-2.82,2.115-2.82,2.115l.353-1.939" transform="translate(-206.511 -124.475)" fill="#dce5e5"/>
          <path id="Path_52" data-name="Path 52" d="M348.339,131.525a10.419,10.419,0,0,1,3.878-.705c1.234,0,2.291.176,2.291,1.234,0,.705-.176.881-.176.881h-1.586c-3,0-6.346,1.234-6.346,5.288,0,3.173,2.115,3.878,3.349,3.878a5.3,5.3,0,0,0,3.7-1.586l-.176,1.41h3.173l1.41-9.695c0-4.054-3.525-4.23-4.935-4.23m2.644,7.579c0,.529-2.115,3.349-4.23,3.349a1.376,1.376,0,0,1-1.41-1.41c0-.881.529-2.115,3.173-2.115A15.506,15.506,0,0,0,355.566,135.579Z" transform="translate(-273.25 -124.475)" fill="#dce5e5"/>
          <path id="Path_53" data-name="Path 53" d="M395.2,141.749h3.7c1.058-5.817,1.234-10.576,3.7-9.695A13.833,13.833,0,0,1,403.837,128h-.705c-1.586,0-2.82,2.115-2.82,2.115l.353-1.939" transform="translate(-311.298 -124.475)" fill="#dce5e5"/>
        </g>
      </g>
    </g>
    <g id="Group_36" data-name="Group 36" transform="translate(1033 179)">
      <path id="Path_57" data-name="Path 57" d="M65.5,0A65.5,65.5,0,1,1,0,65.5,65.5,65.5,0,0,1,65.5,0Z" transform="translate(0 0)" fill="#fff"/>
      <path id="Path_54" data-name="Path 54" d="M298.175,114.61,240.25,174.583l.1,6.447h2.661l62.738-50.558A66.59,66.59,0,0,0,298.175,114.61Z" transform="translate(-177.819 -84.828)" fill="#37a18e"/>
      <path id="Path_55" data-name="Path 55" d="M199.671,67.652,188.1,56.189a4.138,4.138,0,0,0-5.73,0l-49.433,51.07L111.552,86.177a4.138,4.138,0,0,0-5.73,0L95.589,96.309a4.014,4.014,0,0,0,0,5.629l34.179,33.875a5.634,5.634,0,0,0,6.756,0l63.146-62.431A4.143,4.143,0,0,0,199.671,67.652Z" transform="translate(-69.897 -40.736)" fill="#f26532"/>
      <path id="Path_56" data-name="Path 56" d="M136.8,167.078l63.146-62.431a4.014,4.014,0,0,0,0-5.629L198.1,97.28l-64.783,63.658L97.5,126.039l-1.536,1.536a4.014,4.014,0,0,0,0,5.629l34.184,33.875a4.144,4.144,0,0,0,3.378,1.125A4.043,4.043,0,0,0,136.8,167.078Z" transform="translate(-70.171 -72.001)" fill="#e6e5e3"/>
    </g>
  </g>
</svg>
